{"title":"Farewell.2009.DVDRiP.XViD.NORDIC-Zen_Bud","uid":6069533,"size":1488811604,"categoryP":"video","categoryS":"movies","magnet":"?xt=urn:btih:51f2d87020678e8c3c7e579686d7a93eb72611f6&amp;dn=Farewell.2009.DVDRiP.XViD.NORDIC-Zen_Bud&amp;tr=udp%3A%2F%2Ftracker.openbittorrent.com%3A80&amp;tr=udp%3A%2F%2Fopen.demonii.com%3A1337&amp;tr=udp%3A%2F%2Ftracker.coppersurfer.tk%3A6969&amp;tr=udp%3A%2F%2Fexodus.desync.com%3A6969","seeders":1,"leechers":0,"uploader":"Zen_Bud","files":-1,"time":1293554394,"description":"****** Farewell.2009.DVDRiP.XViD.NORDIC-Zen_Bud ******\n\nFormat                           : AVI\nFile size                        : 1.37 GiB\nDuration                         : 1h 48mn\nOverall bit rate                 : 1 806 Kbps\n\nVideo\n\nFormat                           : MPEG-4 Visual\nFormat profile                   : Simple@L3\nCodec ID                         : XVID\nDuration                         : 1h 48mn\nBit rate                         : 1 665 Kbps\nWidth                            : 720 pixels\nHeight                           : 556 pixels\nDisplay aspect ratio             : 16:9\nStream size                      : 1.26 GiB (92%)\nWriting library                  : XviD 1.1.2 (UTC 2006-11-01)\n\nAudio\n\nFormat                           : MPEG Audio\nFormat version                   : Version 1\nCodec ID/Hint                    : MP3\nDuration                         : 1h 48mn\nBit rate                         : 128 Kbps\nChannel(s)                       : 2 channels\nSampling rate                    : 48.0 KHz\nStream size                      : 99.5 MiB (7%)\nLanguage                         : French\n\nText #1\nFormat                           : VobSub\nLanguage                         : Swedish\n\nText #2\nFormat                           : VobSub\nLanguage                         : Norwegian\n\nText #3\nFormat                           : VobSub\nLanguage                         : Danish\n\nText #4\nFormat                           : VobSub\nLanguage                         : Finnish\n\nThe French intelligence service alerts the U.S. about a Soviet spy operation \nduring the height of the Cold War, which sets off an unfortunate chain of events. ","torrent":{"xt":"urn:btih:51f2d87020678e8c3c7e579686d7a93eb72611f6","amp;dn":"Farewell.2009.DVDRiP.XViD.NORDIC-Zen_Bud","amp;tr":["udp%3A%2F%2Ftracker.openbittorrent.com%3A80","udp%3A%2F%2Fopen.demonii.com%3A1337","udp%3A%2F%2Ftracker.coppersurfer.tk%3A6969","udp%3A%2F%2Fexodus.desync.com%3A6969"],"infoHash":"51f2d87020678e8c3c7e579686d7a93eb72611f6","infoHashBuffer":{"type":"Buffer","data":[81,242,216,112,32,103,142,140,60,126,87,150,134,215,169,62,183,38,17,246]},"announce":[],"urlList":[]}}